<?xml version="1.0" standalone="no"?>
<!DOCTYPE svg PUBLIC "-//W3C//DTD SVG 20010904//EN"
 "http://www.w3.org/TR/2001/REC-SVG-20010904/DTD/svg10.dtd">
<svg version="1.0" xmlns="http://www.w3.org/2000/svg"
 width="1012.000000pt" height="1012.000000pt" viewBox="0 0 1012.000000 1012.000000"
 preserveAspectRatio="xMidYMid meet">
<metadata>
Created by potrace 1.14, written by Peter Selinger 2001-2017
</metadata>
<g transform="translate(0.000000,1012.000000) scale(0.100000,-0.100000)"
fill="#000000" stroke="none">
<path d="M5038 10108 c-8 -7 -43 -28 -79 -47 -35 -19 -66 -37 -69 -40 -3 -4
-16 -12 -30 -19 -14 -6 -47 -25 -75 -41 -27 -17 -66 -38 -85 -49 -19 -10 -117
-67 -217 -125 -101 -59 -187 -107 -193 -107 -5 0 -10 -4 -10 -10 0 -5 -4 -10
-9 -10 -7 0 -63 -30 -111 -60 -62 -39 -365 -210 -371 -210 -5 0 -9 -4 -9 -9 0
-5 -10 -13 -22 -16 -11 -4 -44 -21 -72 -38 -28 -16 -91 -53 -141 -82 -49 -28
-129 -74 -176 -102 -48 -27 -93 -53 -100 -57 -8 -3 -27 -14 -44 -25 -16 -10
-48 -28 -70 -41 -22 -12 -56 -32 -75 -43 -69 -43 -95 -57 -122 -68 -16 -6 -28
-15 -28 -19 0 -4 -12 -13 -27 -19 -28 -11 -54 -25 -123 -68 -42 -25 -99 -58
-160 -91 -25 -13 -53 -31 -62 -39 -10 -9 -18 -12 -18 -8 0 4 -8 1 -17 -7 -10
-8 -43 -28 -73 -44 -30 -16 -57 -31 -60 -34 -3 -3 -52 -32 -110 -65 -58 -33
-107 -62 -110 -65 -3 -3 -18 -12 -35 -20 -16 -8 -58 -32 -92 -52 -35 -21 -67
-38 -73 -38 -5 0 -10 -4 -10 -10 0 -5 -4 -10 -9 -10 -4 0 -48 -23 -97 -52 -49
-28 -147 -85 -219 -126 -71 -41 -152 -88 -180 -104 -27 -15 -81 -47 -120 -69
-38 -22 -77 -44 -85 -49 -8 -5 -85 -50 -170 -99 -85 -49 -171 -98 -190 -110
-19 -11 -60 -34 -90 -51 -30 -17 -71 -40 -90 -51 l-35 -20 1 -153 c1 -84 4
-158 8 -165 4 -6 4 -11 -1 -11 -4 0 -8 -47 -8 -105 0 -58 4 -105 8 -105 5 0 5
-5 1 -12 -12 -19 -11 -108 1 -108 7 0 7 -3 0 -8 -5 -4 -10 -20 -10 -37 0 -16
5 -33 10 -37 7 -5 7 -8 0 -8 -6 0 -10 -58 -10 -152 0 -91 4 -156 10 -160 7 -5
7 -8 0 -8 -11 0 -12 -350 -1 -369 4 -6 4 -11 -1 -11 -10 0 -9 -453 1 -469 4
-6 2 -11 -5 -11 -8 0 -8 -4 1 -15 7 -8 9 -15 4 -15 -11 0 -10 -582 0 -599 4
-6 3 -11 -1 -11 -5 0 -8 -20 -8 -45 0 -25 5 -45 10 -45 7 0 7 -3 0 -8 -6 -4
-10 -69 -10 -157 0 -88 4 -153 10 -157 7 -5 7 -8 0 -8 -6 0 -10 -78 -10 -215
0 -118 4 -215 8 -215 5 0 5 -5 1 -12 -10 -16 -11 -108 -2 -108 5 0 8 -5 8 -11
0 -5 -3 -8 -8 -6 -9 6 -7 -586 2 -602 4 -6 4 -11 -1 -11 -4 0 -8 -47 -8 -105
0 -58 4 -105 8 -105 5 0 5 -5 1 -12 -12 -19 -11 -108 1 -108 7 0 7 -3 0 -8 -5
-4 -10 -20 -10 -37 0 -16 5 -33 10 -37 7 -5 7 -8 0 -8 -6 0 -10 -58 -10 -152
0 -91 4 -156 10 -160 7 -5 7 -8 0 -8 -16 0 -10 -139 6 -154 12 -11 82 -52 276
-162 23 -13 92 -53 153 -89 61 -36 115 -65 121 -65 5 0 9 -4 9 -9 0 -5 8 -11
18 -14 16 -6 58 -30 152 -86 25 -15 60 -34 77 -42 18 -7 33 -17 33 -21 0 -5 7
-8 15 -8 8 0 15 -4 15 -10 0 -5 5 -10 10 -10 9 0 225 -121 300 -168 14 -9 26
-14 26 -11 1 2 10 -3 20 -12 11 -9 39 -28 64 -41 25 -14 74 -42 110 -63 36
-21 85 -49 110 -63 25 -14 61 -35 80 -47 19 -12 42 -25 50 -28 8 -4 33 -18 55
-32 22 -14 49 -30 60 -35 11 -5 38 -21 60 -35 22 -14 47 -28 55 -32 13 -6 245
-141 342 -198 23 -14 51 -28 61 -32 9 -3 17 -9 17 -14 0 -5 5 -9 11 -9 6 0 48
-22 95 -50 47 -27 89 -50 93 -50 5 0 11 -4 13 -8 2 -5 28 -22 58 -38 30 -17
72 -40 93 -52 53 -31 126 -73 198 -114 13 -7 26 -15 29 -18 3 -3 19 -12 35
-21 17 -9 122 -69 235 -134 113 -65 214 -123 225 -129 11 -7 38 -23 60 -37 22
-13 51 -30 65 -37 14 -6 32 -16 40 -22 31 -20 167 -99 215 -124 28 -15 86 -49
130 -76 44 -27 86 -49 93 -50 6 0 12 -4 12 -10 0 -5 4 -10 10 -10 5 0 47 -22
94 -50 47 -27 89 -50 95 -50 6 0 11 -4 11 -9 0 -5 8 -11 18 -14 9 -4 35 -17
57 -31 90 -56 93 -57 129 -36 69 38 81 45 94 57 7 7 17 13 22 13 8 0 69 35
155 87 11 7 27 16 35 20 8 4 58 32 110 63 52 31 102 59 110 63 8 4 24 13 35
20 11 7 63 37 115 67 52 30 109 63 125 72 17 10 41 24 55 30 14 7 27 15 30 18
6 6 39 25 90 53 53 28 76 42 91 53 8 6 39 25 69 41 76 41 104 57 110 63 3 3
21 13 40 23 19 9 109 61 200 113 91 53 185 108 210 122 25 14 48 30 52 36 4 6
8 7 8 2 0 -5 7 -3 15 4 17 14 67 44 105 62 14 7 28 17 32 23 4 5 8 6 8 2 0 -4
6 -3 13 3 13 11 35 24 505 296 161 93 305 176 320 185 15 8 52 29 82 46 114
63 456 262 468 273 6 6 12 8 12 4 0 -4 8 0 18 8 9 8 24 18 32 22 8 3 38 20 65
36 28 17 61 36 75 43 14 6 27 14 30 17 3 3 16 11 30 19 14 8 66 38 115 66 50
28 101 58 115 66 14 8 28 19 32 24 4 6 8 7 8 3 0 -4 36 15 81 42 44 28 82 50
85 50 3 0 53 29 129 75 11 7 25 13 30 14 6 1 17 8 25 15 8 7 22 16 30 20 8 3
31 16 50 28 19 11 46 27 59 34 23 12 38 54 19 54 -5 0 -6 5 -2 12 11 17 11 78
1 78 -4 0 -5 5 -1 12 10 16 11 188 0 188 -5 0 -4 6 1 13 5 6 7 37 6 67 -2 30
-3 60 -3 65 0 6 1 49 2 98 2 48 -1 87 -6 87 -5 0 -5 5 0 13 11 15 11 67 1 85
-5 6 -5 12 0 12 4 0 8 29 8 65 0 36 -4 65 -8 65 -5 0 -5 5 -1 12 11 18 11 78
1 78 -6 0 -6 5 0 13 10 15 10 97 0 114 -5 7 -4 13 0 13 10 0 9 72 -1 89 -4 6
-3 11 1 11 5 0 8 19 6 43 -4 42 -3 74 1 112 1 11 -2 26 -7 33 -5 6 -6 12 -1
12 5 0 9 43 9 95 0 52 -4 95 -9 95 -5 0 -4 6 0 13 11 15 11 67 1 84 -5 7 -5
13 0 13 4 0 8 45 8 100 0 55 -4 100 -8 100 -5 0 -5 5 -1 12 11 17 11 108 1
108 -5 0 -5 5 -1 12 10 16 11 188 0 188 -5 0 -4 6 1 13 5 6 7 37 6 67 -2 30
-3 60 -3 65 -1 6 1 31 2 58 2 26 -1 47 -5 47 -5 0 -5 5 -1 12 11 18 11 78 1
78 -6 0 -6 5 0 13 10 15 10 97 0 115 -5 6 -4 12 0 12 10 0 9 72 -1 89 -4 6 -3
11 1 11 5 0 8 19 6 43 -4 42 -3 74 1 112 1 11 -2 26 -7 33 -5 6 -6 12 -1 12 5
0 9 25 9 55 0 30 -4 55 -8 55 -5 0 -5 5 -1 12 11 18 11 78 1 78 -6 0 -6 5 0
13 10 15 10 97 0 115 -5 6 -4 12 0 12 10 0 9 72 -1 89 -4 6 -3 11 1 11 5 0 8
19 6 43 -4 42 -3 74 1 112 1 11 -2 26 -7 33 -5 6 -6 12 -1 12 5 0 9 40 9 90 0
49 -4 90 -8 90 -5 0 -5 5 -1 12 11 17 11 108 1 108 -5 0 -5 5 -1 12 10 16 11
188 0 188 -5 0 -4 6 1 13 5 6 7 37 6 67 -2 30 -3 60 -3 65 0 6 1 49 2 98 2 48
-1 87 -6 87 -5 0 -5 5 0 13 11 15 11 67 1 85 -5 6 -5 12 0 12 4 0 8 29 8 65 0
36 -4 65 -8 65 -5 0 -5 5 -1 12 11 18 11 78 1 78 -6 0 -6 5 0 13 10 15 10 97
0 115 -5 6 -4 12 0 12 10 0 9 71 0 87 -4 6 -38 29 -75 50 -37 21 -75 42 -84
48 -9 5 -29 17 -45 26 -50 28 -107 61 -138 80 -16 11 -37 22 -45 26 -8 4 -73
41 -145 83 -71 42 -137 79 -145 83 -8 4 -28 16 -45 26 -16 10 -122 71 -235
136 -113 65 -222 129 -242 141 -21 13 -40 24 -43 24 -2 0 -28 15 -57 33 -29
18 -64 39 -78 45 -14 7 -43 24 -65 38 -22 13 -52 30 -67 36 -16 7 -28 16 -28
20 0 4 -5 8 -10 8 -6 0 -29 12 -52 26 -23 14 -60 36 -82 49 -66 36 -379 216
-406 233 -14 9 -28 15 -32 14 -5 -1 -8 2 -8 8 0 5 -4 10 -9 10 -8 0 -151 80
-161 90 -3 3 -30 18 -60 34 -30 16 -62 35 -71 42 -8 8 -18 14 -22 14 -5 0
-275 153 -317 181 -8 5 -22 12 -30 16 -8 4 -17 9 -20 12 -3 4 -23 15 -45 26
-22 11 -42 23 -45 26 -3 3 -57 35 -120 70 -63 36 -171 98 -239 137 -68 40
-126 72 -129 72 -3 0 -13 6 -21 14 -9 7 -41 27 -71 43 -30 16 -74 42 -97 56
-24 15 -45 27 -47 27 -2 0 -50 27 -105 60 -56 33 -106 60 -111 60 -6 0 -10 5
-10 10 0 6 -4 10 -10 10 -5 0 -33 14 -62 31 -80 48 -119 70 -163 93 -22 12
-42 24 -45 27 -3 3 -40 25 -83 50 -43 24 -95 54 -115 66 -45 26 -47 26 -64 11z"/>
</g>
</svg>
